<svg data-v-0dd9719b="" version="1.0" xmlns="http://www.w3.org/2000/svg" xmlns:xlink="http://www.w3.org/1999/xlink" width="100%" height="100%" viewBox="0 0 340.000000 250.000000" preserveAspectRatio="xMidYMid meet" color-interpolation-filters="sRGB" style="margin: auto;"> <rect data-v-0dd9719b="" x="0" y="0" width="100%" height="100%" fill="#fff" fill-opacity="1" class="background"></rect> <rect data-v-0dd9719b="" x="0" y="0" width="100%" height="100%" fill="url(#watermark)" fill-opacity="1" class="watermarklayer"></rect> <g data-v-0dd9719b="" fill="#007ec8" class="icon-text-wrapper icon-svg-group iconsvg" transform="translate(47.909996032714844,94.73670959472656)"><g class="iconsvg-imagesvg" transform="translate(0,0)"><g><rect fill="#007ec8" fill-opacity="0" stroke-width="2" x="0" y="0" width="60" height="60.52658125693534" class="image-rect"></rect> <svg x="0" y="0" width="60" height="60.52658125693534" filtersec="colorsb831236964" class="image-svg-svg primary" style="overflow: visible;"><svg xmlns="http://www.w3.org/2000/svg" viewBox="0 -0.005672646686434746 128.47000122070312 129.59793090820312"><defs><linearGradient id="ab687a543-8084-482f-9b0e-348590583c31" x1="32.91" y1="-1.91" x2="157.91" y2="102.59" gradientUnits="userSpaceOnUse"><stop offset="0" stop-color="#00aeef"></stop><stop offset=".11" stop-color="#00a7e9"></stop><stop offset=".68" stop-color="#0089d1"></stop><stop offset="1" stop-color="#007ec8"></stop></linearGradient><linearGradient id="bb6303083-9405-4c1c-b6d6-18ccd16d8544" x1="3.15" y1="33.69" x2="128.15" y2="138.19" gradientUnits="userSpaceOnUse"><stop offset="0" stop-color="#00aeef"></stop><stop offset=".11" stop-color="#00a7e9"></stop><stop offset=".68" stop-color="#0089d1"></stop><stop offset="1" stop-color="#007ec8"></stop></linearGradient><linearGradient id="c46c554b9-da6b-433e-93b1-a288c7f375be" x1="-21.33" y1="62.96" x2="103.68" y2="167.46" gradientUnits="userSpaceOnUse"><stop offset="0" stop-color="#00aeef"></stop><stop offset=".11" stop-color="#00a7e9"></stop><stop offset=".68" stop-color="#0089d1"></stop><stop offset="1" stop-color="#007ec8"></stop></linearGradient></defs><g><g fill-rule="evenodd"><path d="M65.85 5.61q12.17-3.24 22 3c1 .75 1.54 1.43 1.48 2-.06 1.08 1 1.95 3.12 2.58 4.33 1.48 6.84 1.54 7.51.21.29-1.7-1.37-3.56-5-5.61A62.47 62.47 0 0 0 60.78.12a38.88 38.88 0 0 0-17.63 5.47 17.18 17.18 0 0 0-8.07 12.87q-1 12.63 6.76 23.85Q52.79 58.06 64 66.62a175 175 0 0 0 24.89 18.17 83.13 83.13 0 0 0 21.37 9.54q7.6 1.73 10.79 0 1.79-1.42 4.7-10.9a60.65 60.65 0 0 0 2.72-16c-2.08 3.06-8 2.89-17.67-.46q-36.9-17-50-42.85-6.16-13.61 5-18.53z" fill="url(#ab687a543-8084-482f-9b0e-348590583c31)"></path><path d="M5.93 37q7.8-16 21-24.43-11.15 8.76-9.61 21.94Q20 60.25 56.48 90.2q35.31 26 51.73 21.6a59.15 59.15 0 0 1-23 14.35q-4.74.84-13.52-2.37-40.25-18-60.88-49.7Q-1.12 52.87 5.93 37z" fill="url(#bb6303083-9405-4c1c-b6d6-18ccd16d8544)"></path><path d="M3.41 86.27C1.68 81.69.54 75 0 66.24Q1.94 89 27.41 109.91q23.06 18.58 40.21 18.63c.27.4-.35.75-1.83 1a62 62 0 0 1-35.45-9.4Q9.3 105.75 3.41 86.27z" fill="url(#c46c554b9-da6b-433e-93b1-a288c7f375be)"></path></g></g></svg></svg> <!----></g></g> <g transform="translate(67,13.318288803100586)"><g data-gra="path-name" fill-rule="" class="tp-name iconsvg-namesvg"><g transform="scale(1)"><g><path d="M13.09-33.24L13.09-33.24Q15.81-33.24 17.29-32.67 18.77-32.09 19.83-31.44L19.83-31.44Q20.38-31.12 20.72-30.96 21.07-30.8 21.39-30.8L21.39-30.8Q22.13-30.8 22.41-32.83L22.41-32.83 23.47-32.83Q23.42-31.95 23.35-30.73 23.28-29.51 23.26-27.53 23.24-25.54 23.24-22.32L23.24-22.32 22.18-22.32Q21.99-24.71 21.07-26.97 20.15-29.23 18.47-30.68 16.78-32.14 14.34-32.14L14.34-32.14Q12.13-32.14 10.7-30.89 9.27-29.65 9.27-27.43L9.27-27.43Q9.27-25.59 10.19-24.28 11.11-22.96 12.89-21.72 14.66-20.47 17.2-18.72L17.2-18.72Q19.41-17.29 21.16-15.86 22.91-14.43 23.98-12.63 25.04-10.84 25.04-8.35L25.04-8.35Q25.04-5.3 23.45-3.32 21.85-1.34 19.27-0.35 16.69 0.65 13.6 0.65L13.6 0.65Q10.74 0.65 9.04 0.09 7.33-0.46 6.18-1.06L6.18-1.06Q5.16-1.71 4.61-1.71L4.61-1.71Q3.87-1.71 3.6 0.32L3.6 0.32 2.54 0.32Q2.63-0.78 2.65-2.26 2.67-3.73 2.7-6.11 2.72-8.48 2.72-12.13L2.72-12.13 3.78-12.13Q3.97-9.08 4.82-6.43 5.67-3.78 7.45-2.17 9.22-0.55 12.17-0.55L12.17-0.55Q14.57-0.55 16.23-1.84 17.89-3.14 17.89-5.72L17.89-5.72Q17.89-8.58 15.95-10.44 14.02-12.31 10.97-14.29L10.97-14.29Q8.81-15.72 6.92-17.15 5.03-18.58 3.9-20.43 2.77-22.27 2.77-24.81L2.77-24.81Q2.77-27.71 4.22-29.58 5.67-31.44 8.05-32.34 10.42-33.24 13.09-33.24ZM56.53-32.64L56.53-32.64Q56.34-30.29 56.27-28.12 56.2-25.96 56.2-24.81L56.2-24.81Q56.2-23.79 56.25-22.87 56.3-21.95 56.34-21.3L56.34-21.3 55.28-21.3Q54.54-25.17 53.41-27.43 52.28-29.69 50.72-30.64 49.15-31.58 47.03-31.58L47.03-31.58 45.97-31.58 45.97-5.26Q45.97-3.41 46.36-2.49 46.75-1.57 47.81-1.27 48.87-0.97 50.9-0.92L50.9-0.92 50.9 0Q49.47-0.05 47.1-0.09 44.72-0.14 42.14-0.14L42.14-0.14Q39.61-0.14 37.35-0.09 35.09-0.05 33.7 0L33.7 0 33.7-0.92Q35.78-0.97 36.84-1.27 37.9-1.57 38.27-2.49 38.64-3.41 38.64-5.26L38.64-5.26 38.64-31.58 37.62-31.58Q35.5-31.58 33.93-30.64 32.37-29.69 31.26-27.46 30.15-25.22 29.32-21.3L29.32-21.3 28.26-21.3Q28.36-21.95 28.38-22.87 28.4-23.79 28.4-24.81L28.4-24.81Q28.4-25.96 28.33-28.12 28.26-30.29 28.08-32.64L28.08-32.64Q30.2-32.6 32.71-32.55 35.23-32.51 37.76-32.51 40.3-32.51 42.33-32.51L42.33-32.51Q44.4-32.51 46.91-32.51 49.43-32.51 51.96-32.55 54.5-32.6 56.53-32.64ZM83.96-32.64L83.96-32.64Q83.78-30.61 83.71-28.72 83.64-26.83 83.64-25.82L83.64-25.82Q83.64-24.9 83.68-24.07 83.73-23.24 83.78-22.68L83.78-22.68 82.72-22.68Q82.25-26.05 81.29-28.01 80.32-29.97 78.77-30.78 77.23-31.58 75.15-31.58L75.15-31.58 73.26-31.58Q71.88-31.58 71.21-31.35 70.54-31.12 70.31-30.45 70.08-29.78 70.08-28.31L70.08-28.31 70.08-4.33Q70.08-2.9 70.31-2.21 70.54-1.52 71.21-1.29 71.88-1.06 73.26-1.06L73.26-1.06 75.52-1.06Q77.6-1.06 79.19-1.96 80.78-2.86 81.91-5.03 83.04-7.19 83.64-10.88L83.64-10.88 84.7-10.88Q84.56-9.41 84.56-7.01L84.56-7.01Q84.56-5.95 84.61-4.01 84.65-2.07 84.88 0L84.88 0Q82.53-0.09 79.58-0.12 76.63-0.14 74.32-0.14L74.32-0.14Q72.76-0.14 70.17-0.14 67.59-0.14 64.69-0.12 61.78-0.09 59.29 0L59.29 0 59.29-0.92Q60.77-1.01 61.51-1.29 62.24-1.57 62.5-2.4 62.75-3.23 62.75-4.89L62.75-4.89 62.75-27.76Q62.75-29.46 62.5-30.27 62.24-31.08 61.48-31.38 60.72-31.68 59.29-31.72L59.29-31.72 59.29-32.64Q61.78-32.6 64.69-32.55 67.59-32.51 70.17-32.51 72.76-32.51 74.32-32.51L74.32-32.51Q76.44-32.51 79.14-32.53 81.84-32.55 83.96-32.64ZM68.7-16.88L76.77-16.88Q76.77-16.88 76.77-16.41 76.77-15.95 76.77-15.95L76.77-15.95 68.7-15.95Q68.7-15.95 68.7-16.41 68.7-16.88 68.7-16.88L68.7-16.88ZM77.04-22.96L78.1-22.96Q77.92-20.33 77.94-18.95 77.97-17.57 77.97-16.41L77.97-16.41Q77.97-15.26 78.01-13.88 78.06-12.49 78.24-9.87L78.24-9.87 77.18-9.87Q76.95-11.48 76.33-12.86 75.71-14.25 74.55-15.1 73.4-15.95 71.56-15.95L71.56-15.95 71.56-16.88Q73.4-16.88 74.51-17.89 75.61-18.9 76.21-20.31 76.81-21.72 77.04-22.96L77.04-22.96ZM103.92-32.74L103.92-32.74 115.13-3.87Q115.77-2.21 116.58-1.59 117.39-0.97 118.03-0.92L118.03-0.92 118.03 0Q116.65-0.09 114.78-0.12 112.91-0.14 111.02-0.14L111.02-0.14Q108.9-0.14 107.01-0.12 105.12-0.09 104.02 0L104.02 0 104.02-0.92Q106.37-1.01 106.99-1.73 107.61-2.44 106.69-4.8L106.69-4.8 98.85-26.23 99.68-27.43 92.67-9.18Q91.38-5.76 91.41-4.01 91.43-2.26 92.54-1.64 93.64-1.01 95.49-0.92L95.49-0.92 95.49 0Q93.97-0.09 92.58-0.12 91.2-0.14 89.77-0.14L89.77-0.14Q88.76-0.14 87.86-0.12 86.96-0.09 86.27 0L86.27 0 86.27-0.92Q87.23-1.11 88.25-2.17 89.26-3.23 90.23-5.76L90.23-5.76 100.74-32.74Q101.48-32.69 102.33-32.69 103.19-32.69 103.92-32.74ZM93.87-13.28L107.15-13.28 107.15-12.36 93.41-12.36 93.87-13.28ZM132.6-32.64L132.6-32.64Q141.69-32.64 146.11-28.52 150.54-24.39 150.54-16.69L150.54-16.69Q150.54-11.66 148.37-7.91 146.2-4.15 142.08-2.07 137.95 0 132.19 0L132.19 0Q131.08 0 129.03-0.07 126.98-0.14 125.46-0.14L125.46-0.14Q123.43-0.14 121.47-0.12 119.51-0.09 118.36 0L118.36 0 118.36-0.92Q119.83-1.01 120.57-1.29 121.31-1.57 121.56-2.4 121.81-3.23 121.81-4.89L121.81-4.89 121.81-27.76Q121.81-29.46 121.56-30.27 121.31-31.08 120.55-31.38 119.78-31.68 118.36-31.72L118.36-31.72 118.36-32.64Q119.51-32.6 121.47-32.53 123.43-32.46 125.36-32.51L125.36-32.51Q127.02-32.55 129.12-32.6 131.22-32.64 132.6-32.64ZM132.56-31.81L132.56-31.81Q130.44-31.81 129.79-31.03 129.14-30.25 129.14-27.85L129.14-27.85 129.14-4.8Q129.14-2.4 129.81-1.61 130.48-0.83 132.6-0.83L132.6-0.83Q136.48-0.83 138.71-2.65 140.95-4.47 141.92-7.98 142.88-11.48 142.88-16.51L142.88-16.51Q142.88-24.25 140.49-28.03 138.09-31.81 132.56-31.81ZM179.72-32.69L179.72-32.69 179.72-31.77Q178.71-31.35 177.65-30.13 176.59-28.91 175.3-26.42L175.3-26.42 166.58-9.18 164.42-9.18 153.63-29.14Q152.8-30.71 152.13-31.21 151.46-31.72 150.95-31.72L150.95-31.72 150.95-32.69Q152.2-32.55 153.51-32.51 154.83-32.46 156.39-32.46L156.39-32.46Q158.42-32.46 160.77-32.53 163.12-32.6 165.06-32.69L165.06-32.69 165.06-31.72Q163.91-31.72 162.99-31.54 162.06-31.35 161.7-30.87 161.33-30.38 161.88-29.32L161.88-29.32 169.16-15.31 167.74-13.46 172.48-23.01Q174.19-26.33 174.31-28.22 174.42-30.11 173.38-30.91 172.35-31.72 170.46-31.77L170.46-31.77 170.46-32.69Q172.02-32.64 173.41-32.6 174.79-32.55 176.22-32.55L176.22-32.55Q177.23-32.55 178.13-32.6 179.03-32.64 179.72-32.69ZM166.54-11.48L169.86-16.46 169.86-4.89Q169.86-3.23 170.11-2.4 170.36-1.57 171.1-1.29 171.84-1.01 173.31-0.92L173.31-0.92 173.31 0Q172.07-0.09 170.11-0.12 168.15-0.14 166.21-0.14L166.21-0.14Q164.05-0.14 162.11-0.12 160.17-0.09 159.07 0L159.07 0 159.07-0.92Q160.54-1.01 161.28-1.29 162.02-1.57 162.27-2.4 162.53-3.23 162.53-4.89L162.53-4.89 162.53-14.34 166.54-11.48Z" transform="translate(-2.5399999618530273, 33.2400016784668)"></path></g> <!----> <!----> <!----> <!----> <!----> <!----> <!----></g></g> <!----></g></g><defs v-gra="od"></defs></svg>